<svg xmlns="http://www.w3.org/2000/svg" viewBox="0 0 500 500"><g id="freepik--background-complete--inject-75"><rect y="382.4" width="500" height="0.25" style="fill:#ebebeb"></rect><rect x="435" y="398.49" width="14.9" height="0.25" style="fill:#ebebeb"></rect><rect x="322.53" y="401.21" width="8.69" height="0.25" style="fill:#ebebeb"></rect><rect x="396.59" y="389.21" width="34.19" height="0.25" style="fill:#ebebeb"></rect><rect x="66.44" y="394.37" width="43.19" height="0.25" style="fill:#ebebeb"></rect><rect x="118.53" y="394.37" width="15.58" height="0.25" style="fill:#ebebeb"></rect><rect x="161.08" y="391.01" width="93.68" height="0.25" style="fill:#ebebeb"></rect><path d="M237,337.8H43.91a5.71,5.71,0,0,1-5.7-5.71V60.66A5.71,5.71,0,0,1,43.91,55H237a5.71,5.71,0,0,1,5.71,5.71V332.09A5.71,5.71,0,0,1,237,337.8ZM43.91,55.2a5.46,5.46,0,0,0-5.45,5.46V332.09a5.46,5.46,0,0,0,5.45,5.46H237a5.47,5.47,0,0,0,5.46-5.46V60.66A5.47,5.47,0,0,0,237,55.2Z" style="fill:#ebebeb"></path><path d="M453.31,337.8H260.21a5.72,5.72,0,0,1-5.71-5.71V60.66A5.72,5.72,0,0,1,260.21,55h193.1A5.71,5.71,0,0,1,459,60.66V332.09A5.71,5.71,0,0,1,453.31,337.8ZM260.21,55.2a5.47,5.47,0,0,0-5.46,5.46V332.09a5.47,5.47,0,0,0,5.46,5.46h193.1a5.47,5.47,0,0,0,5.46-5.46V60.66a5.47,5.47,0,0,0-5.46-5.46Z" style="fill:#ebebeb"></path><rect x="221.5" y="321" width="7.9" height="54.1" transform="translate(450.9 696.1) rotate(180)" style="fill:#f0f0f0"></rect><rect x="61.7" y="375.1" width="162.48" height="7.3" transform="translate(285.89 757.5) rotate(180)" style="fill:#f0f0f0"></rect><rect x="56.49" y="321" width="165.01" height="54.1" style="fill:#f5f5f5"></rect><rect x="67.16" y="330.42" width="143.66" height="30.9" style="fill:#f0f0f0"></rect><rect x="101.67" y="329.38" width="74.64" height="5.18" rx="2.37" transform="translate(277.99 663.93) rotate(180)" style="fill:#f5f5f5"></rect><rect x="52.87" y="316.17" width="168.63" height="4.83" transform="translate(274.37 637.17) rotate(180)" style="fill:#f0f0f0"></rect><rect x="221.5" y="316.17" width="11.69" height="4.83" style="fill:#e6e6e6"></rect><rect x="215.47" y="82.65" width="211.43" height="162.15" transform="translate(642.37 327.46) rotate(180)" style="fill:#e6e6e6"></rect><path d="M195.68,76.35H438.86a1.83,1.83,0,0,1,1.83,1.83h0A1.83,1.83,0,0,1,438.86,80H195.68a1.83,1.83,0,0,1-1.84-1.83h0A1.83,1.83,0,0,1,195.68,76.35Z" style="fill:#e6e6e6"></path><rect x="207.63" y="82.65" width="215.61" height="162.15" transform="translate(630.87 327.46) rotate(180)" style="fill:#f0f0f0"></rect><polygon points="215.47 244.81 426.9 244.81 426.9 250 210.07 250 215.47 244.81" style="fill:#e6e6e6"></polygon><polygon points="194.57 244.81 410.18 244.81 404.78 250 189.18 250 194.57 244.81" style="fill:#f0f0f0"></polygon><rect x="245.33" y="66.9" width="140.21" height="193.66" transform="translate(479.16 -151.7) rotate(90)" style="fill:#fafafa"></rect><polygon points="347.64 233.83 283.25 93.63 252.84 93.63 317.24 233.83 347.64 233.83" style="fill:#fff"></polygon><polygon points="310.71 233.83 246.31 93.63 234.46 93.63 298.86 233.83 310.71 233.83" style="fill:#fff"></polygon><rect x="149.2" y="163.03" width="140.21" height="1.39" transform="translate(383.03 -55.57) rotate(90)" style="fill:#e6e6e6"></rect><g style="opacity:0.4"><rect x="412.14" y="73.07" width="18.88" height="133.81" transform="translate(843.16 279.94) rotate(180)" style="fill:#f0f0f0"></rect><rect x="404.78" y="73.07" width="14.71" height="133.81" transform="translate(824.27 279.94) rotate(180)" style="fill:#e6e6e6"></rect><rect x="393.25" y="73.07" width="18.88" height="133.81" transform="translate(805.39 279.94) rotate(180)" style="fill:#f0f0f0"></rect><rect x="385.9" y="73.07" width="14.71" height="133.81" transform="translate(786.51 279.94) rotate(180)" style="fill:#e6e6e6"></rect><rect x="374.37" y="73.07" width="18.88" height="133.81" transform="translate(767.62 279.94) rotate(180)" style="fill:#f0f0f0"></rect></g><g style="opacity:0.4"><rect x="225.63" y="73.07" width="10.88" height="133.81" transform="translate(462.15 279.94) rotate(180)" style="fill:#f0f0f0"></rect><rect x="221.39" y="73.07" width="8.48" height="133.81" transform="translate(451.26 279.94) rotate(180)" style="fill:#e6e6e6"></rect><rect x="214.75" y="73.07" width="10.88" height="133.81" transform="translate(440.38 279.94) rotate(180)" style="fill:#f0f0f0"></rect><rect x="210.51" y="73.07" width="8.48" height="133.81" transform="translate(429.5 279.94) rotate(180)" style="fill:#e6e6e6"></rect><rect x="203.87" y="73.07" width="10.88" height="133.81" transform="translate(418.62 279.94) rotate(180)" style="fill:#f0f0f0"></rect></g><rect x="70.33" y="73.15" width="86.87" height="221.96" style="fill:#f5f5f5"></rect><rect x="157.2" y="73.15" width="2.38" height="221.96" transform="translate(316.79 368.25) rotate(180)" style="fill:#e0e0e0"></rect><rect x="10.83" y="148.74" width="205.87" height="70.78" transform="translate(297.89 70.36) rotate(90)" style="fill:#fff"></rect><polygon points="103.29 287.06 126.78 81.19 140.33 81.19 116.85 287.06 103.29 287.06" style="fill:#fafafa"></polygon><polygon points="91.55 287.06 115.03 81.19 121.81 81.19 98.33 287.06 91.55 287.06" style="fill:#fafafa"></polygon></g><g id="freepik--Shadow--inject-75"><ellipse id="freepik--path--inject-75" cx="250" cy="416.24" rx="193.89" ry="11.32" style="fill:#f5f5f5"></ellipse></g><g id="freepik--Smartphone--inject-75"><path d="M398.05,416.24H281.25a11.72,11.72,0,0,1-11.81-12.64l16.3-247.07a13.74,13.74,0,0,1,13.47-12.64H416a11.72,11.72,0,0,1,11.8,12.64L411.52,403.6A13.74,13.74,0,0,1,398.05,416.24Z" style="fill:#263238"></path><path d="M422.64,210.33H408.5a2.83,2.83,0,0,1-2.85-3.05l1.41-21.4a3.32,3.32,0,0,1,3.26-3h14.13a2.83,2.83,0,0,1,2.85,3l-1.41,21.4A3.31,3.31,0,0,1,422.64,210.33Z" style="fill:#263238"></path><rect x="324.61" y="140.39" width="5.17" height="1" style="fill:#FF81AE"></rect><rect x="299.44" y="140.39" width="18.8" height="1" style="fill:#FF81AE"></rect><path d="M396.27,416.24H279.47a11.73,11.73,0,0,1-11.81-12.64L284,156.53a13.74,13.74,0,0,1,13.47-12.64h116.8A11.72,11.72,0,0,1,426,156.53L409.74,403.6A13.74,13.74,0,0,1,396.27,416.24Z" style="fill:#FF81AE"></path><path d="M401.57,387.46H278a6.66,6.66,0,0,1-6.71-7.18l14.19-215.1A7.8,7.8,0,0,1,293.1,158H416.7a6.66,6.66,0,0,1,6.71,7.18l-14.19,215.1A7.8,7.8,0,0,1,401.57,387.46Z" style="fill:#fff"></path><polygon points="378.52 158 353.98 158 294.53 387.46 319.07 387.46 378.52 158" style="fill:#fafafa"></polygon><polygon points="400.14 158 387.87 158 328.42 387.46 340.69 387.46 400.14 158" style="fill:#fafafa"></polygon><path d="M383.84,316.36,357.16,215.45a10.49,10.49,0,0,0-12.8-7.45l-63.12,16.68-8.42,131.86,103.57-27.37A10.51,10.51,0,0,0,383.84,316.36Z" style="fill:#f0f0f0"></path><ellipse cx="339" cy="399.08" rx="8.08" ry="7.56" transform="translate(-182.13 347.98) rotate(-44.05)" style="fill:#fff;opacity:0.2"></ellipse><path d="M358.63,150.54a3.51,3.51,0,0,1-3.45,3.23,3,3,0,0,1-3-3.23,3.5,3.5,0,0,1,3.45-3.23A3,3,0,0,1,358.63,150.54Z" style="fill:#fff;opacity:0.2"></path><path d="M357.17,150.54a1.92,1.92,0,0,1-1.89,1.78,1.64,1.64,0,0,1-1.66-1.78,1.92,1.92,0,0,1,1.89-1.78A1.64,1.64,0,0,1,357.17,150.54Z" style="fill:#fff;opacity:0.2"></path></g><g id="freepik--Character--inject-75"><path d="M169.32,138.06c3.73-9.17,2.39-20.34-8.19-22.84a15.41,15.41,0,0,0-19.24,15.59c.42,10,7,18.33-4.53,25.58s-10.3,29.1,12,24.88,10.25-15.69,10.25-15.69-5.47,4.46-7.23-.08C150.15,159.62,165,148.79,169.32,138.06Z" style="fill:#263238"></path><path d="M130.08,168.14l-.49-.11c1.49-6.67,3.83-8.39,6.3-10.21s4.81-3.55,6.7-10.11c.89-3.09.33-6.51-.22-9.81-.7-4.21-1.42-8.57.75-12.47l.43.25c-2.08,3.74-1.37,8-.69,12.14.56,3.36,1.14,6.83.21,10-1.93,6.72-4.45,8.57-6.88,10.37S131.53,161.66,130.08,168.14Z" style="fill:#263238"></path><path d="M197.72,188.43c.07.34.19.85.3,1.31l.35,1.41c.24.95.51,1.9.79,2.85.57,1.89,1.18,3.8,1.84,5.68a120,120,0,0,0,4.52,11.13l1.26,2.63a4,4,0,0,0,.89,1.25,8.24,8.24,0,0,0,3.89,1.72,35.37,35.37,0,0,0,11.29,0l1.35,4.25a31.84,31.84,0,0,1-3.17,1.2,32.7,32.7,0,0,1-3.26.9,26.35,26.35,0,0,1-7,.65,14.88,14.88,0,0,1-7.77-2.45,11.32,11.32,0,0,1-3.22-3.42l-.16-.25-.1-.17-.2-.36-.41-.7-.81-1.42a98.41,98.41,0,0,1-5.5-11.82c-.76-2-1.51-4.09-2.12-6.2-.3-1-.6-2.11-.87-3.19s-.51-2.1-.73-3.38Z" style="fill:#ffc3bd"></path><path d="M190,174.45c10.09,4.5,10,19.62,10,19.62l-10.63,6.39s-8-11.84-7.4-17.22C182.56,177.63,184.28,171.92,190,174.45Z" style="fill:#FF81AE"></path><path d="M191.59,187.35c-2.76-2.79-5.19.43-7.41,4a77.84,77.84,0,0,0,5.19,9.13l4.36-2.62C194.59,194.53,194.34,190.15,191.59,187.35Z" style="opacity:0.2"></path><path d="M221.8,216.79l7.1-3.54.08,9.29s-5.3.92-8.83-2.8Z" style="fill:#ffc3bd"></path><polygon points="236.53 214.9 235.31 221.8 228.98 222.54 228.9 213.25 236.53 214.9" style="fill:#ffc3bd"></polygon><polygon points="156.81 408.86 165.59 409.7 169.68 389.27 160.9 388.43 156.81 408.86" style="fill:#ffc3bd"></polygon><polygon points="99.24 384.91 106.38 390.11 118.29 373.21 111.14 368.01 99.24 384.91" style="fill:#ffc3bd"></polygon><path d="M109,386.86l-5.88-8.05a.7.7,0,0,0-.91-.22l-7.05,3.74a1.43,1.43,0,0,0-.43,2.09c2.1,2.77,3.25,4,5.84,7.55,1.6,2.18,4.8,7.23,7,10.24s5.29,1,4.65-.45c-2.9-6.51-3-10.32-2.78-13.37A2.28,2.28,0,0,0,109,386.86Z" style="fill:#263238"></path><path d="M166.75,407.05H156.21a.86.86,0,0,0-.83.64L153.09,416a1.31,1.31,0,0,0,1.28,1.67c3.72,0,5.48,0,10.11,0h14.17c3.85,0,4.65-3.89,3.06-4.25-7.14-1.58-11.26-3.76-13.47-5.84A2.16,2.16,0,0,0,166.75,407.05Z" style="fill:#263238"></path><polygon points="169.68 389.28 167.57 399.81 158.62 399.81 160.9 388.44 169.68 389.28" style="opacity:0.2"></polygon><polygon points="111.14 368.01 118.29 373.22 112.15 381.93 105 376.72 111.14 368.01" style="opacity:0.2"></polygon><path d="M194.16,182.42c-.62,6.75-2.86,20-9.41,45.89l-35.94-3.11c1.73-13.49,2.54-22.23-.84-47.77a6.21,6.21,0,0,1,5.78-7c2.59-.14,5.67-.23,8.76-.11a115.11,115.11,0,0,1,16.32,1.41c3.17.57,6.55,1.39,9.3,2.11A8.12,8.12,0,0,1,194.16,182.42Z" style="fill:#FF81AE"></path><path d="M148.89,184.91c.46,4,.8,7.57,1,10.77,3.31-.29,5.75-3.92,6-11.51C154.65,180.5,151.7,181.83,148.89,184.91Z" style="opacity:0.2"></path><path d="M184.75,228.31s12.16,53.8,4,91.73c-5.43,25.4-17.52,76.71-17.52,76.71l-15.33-.39s7.32-53.85,10.39-75c5.25-36.22-7.9-95.29-7.9-95.29Z" style="fill:#263238"></path><path d="M170.73,239.18l-7.67,12.09a370.91,370.91,0,0,1,4.39,43.3C178.23,275.27,173.12,249.39,170.73,239.18Z" style="opacity:0.2"></path><polygon points="173.43 397.55 154.49 397.07 155.59 391.25 174.91 392.16 173.43 397.55" style="fill:#FF81AE"></polygon><path d="M176.89,227.74s-7.13,57.05-22.6,88.2c-12.49,25.16-38.62,65.15-38.62,65.15l-9.55-7.65s16.34-44.23,25.62-60.94c22.77-41,4.16-72.25,17.07-87.3Z" style="fill:#263238"></path><rect x="163.06" y="207.79" width="205.33" height="125.33" rx="10.48" transform="translate(-84.01 124.04) rotate(-22.79)" style="fill:#FF81AE"></rect><rect x="163.06" y="207.79" width="205.33" height="125.33" rx="10.48" transform="translate(-84.01 124.04) rotate(-22.79)" style="opacity:0.1"></rect><rect x="169.08" y="250" width="46.18" height="28.19" rx="5.04" transform="translate(-87.29 95.05) rotate(-22.79)" style="fill:#fff;opacity:0.2"></rect><rect x="192.8" y="316.56" width="39.15" height="10.17" rx="1.89" transform="translate(-108.01 107.37) rotate(-22.79)" style="fill:#fff;opacity:0.4"></rect><rect x="235.22" y="298.74" width="39.15" height="10.17" rx="1.89" transform="translate(-97.79 122.41) rotate(-22.79)" style="fill:#fff;opacity:0.4"></rect><rect x="277.64" y="280.92" width="39.15" height="10.17" rx="1.89" transform="translate(-87.58 137.45) rotate(-22.79)" style="fill:#fff;opacity:0.4"></rect><rect x="320.06" y="263.1" width="39.15" height="10.17" rx="1.89" transform="translate(-77.36 152.49) rotate(-22.79)" style="fill:#fff;opacity:0.4"></rect><polygon points="116.67 382.15 104.42 372.88 107.43 367.5 120.45 377.6 116.67 382.15" style="fill:#FF81AE"></polygon><path d="M148.45,223.05l-1.9,3.08c-.15.23.13.52.54.55l37.7,3.26c.32,0,.6-.11.64-.31l.6-3.19c.05-.22-.22-.43-.57-.46l-36.4-3.15A.67.67,0,0,0,148.45,223.05Z" style="fill:#FF81AE"></path><path d="M148.45,223.05l-1.9,3.08c-.15.23.13.52.54.55l37.7,3.26c.32,0,.6-.11.64-.31l.6-3.19c.05-.22-.22-.43-.57-.46l-36.4-3.15A.67.67,0,0,0,148.45,223.05Z" style="opacity:0.5"></path><path d="M153,227.54l-1-.08c-.19,0-.33-.13-.31-.25l.82-4.14c0-.13.2-.21.4-.19l1,.08c.2,0,.34.13.31.25l-.82,4.14C153.36,227.47,153.18,227.56,153,227.54Z" style="fill:#FF81AE"></path><path d="M182,230.05l-1-.08c-.19,0-.33-.13-.31-.25l.82-4.14a.36.36,0,0,1,.4-.19l1,.08c.2,0,.34.13.31.25l-.82,4.14C182.39,230,182.21,230.07,182,230.05Z" style="fill:#FF81AE"></path><path d="M167.5,228.8l-1-.09c-.2,0-.34-.13-.31-.25l.82-4.14c0-.12.2-.21.39-.19l1,.09c.19,0,.33.13.31.25l-.82,4.14C167.87,228.73,167.7,228.81,167.5,228.8Z" style="fill:#FF81AE"></path><path d="M111.24,391.31a1,1,0,0,1-.34,0c-1.09-.22-2-2.07-2.48-3.15a.17.17,0,0,1,0-.19.15.15,0,0,1,.18,0c.34.12,3.32,1.27,3.55,2.36a.65.65,0,0,1-.22.65A1.23,1.23,0,0,1,111.24,391.31Zm-2.33-2.92c.68,1.49,1.44,2.44,2.06,2.56a.84.84,0,0,0,.76-.28.32.32,0,0,0,.12-.33C111.71,389.67,109.94,388.81,108.91,388.39Z" style="fill:#FF81AE"></path><path d="M111.33,388.53a6.24,6.24,0,0,1-2.82-.3.17.17,0,0,1-.1-.14.17.17,0,0,1,.07-.16c.09-.06,2.15-1.56,3.39-1.28a1.06,1.06,0,0,1,.73.53.71.71,0,0,1,0,.88A2,2,0,0,1,111.33,388.53ZM109,388c1,.29,2.87.31,3.33-.2.08-.08.15-.21,0-.47a.7.7,0,0,0-.49-.36C111,386.8,109.56,387.63,109,388Z" style="fill:#FF81AE"></path><path d="M171.43,408.75a14.68,14.68,0,0,1-2.88-.36.18.18,0,0,1,0-.33c.44-.21,4.26-2,5.22-1.32a.55.55,0,0,1,.25.54,1.25,1.25,0,0,1-.52,1A3.4,3.4,0,0,1,171.43,408.75Zm-2.28-.6c1.14.21,3.24.49,4.1-.16a1,1,0,0,0,.38-.73c0-.14,0-.2-.09-.23C173,406.66,170.74,407.45,169.15,408.15Z" style="fill:#FF81AE"></path><path d="M168.59,408.39a.15.15,0,0,1-.11,0,.16.16,0,0,1-.06-.17c0-.17.9-3.94,3-3.7.52.07.66.32.69.53.13,1-2.28,2.9-3.44,3.37Zm2.62-3.57c-1.33,0-2.1,2.2-2.36,3.08,1.25-.66,3-2.23,2.89-2.84,0-.05,0-.19-.39-.23Z" style="fill:#FF81AE"></path><path d="M152.79,185.09l-.53.75-.58.85c-.39.58-.78,1.17-1.15,1.78-.76,1.2-1.45,2.45-2.15,3.7a65.66,65.66,0,0,0-3.64,7.79,66.7,66.7,0,0,0-2.63,8.15l-.47,2c0-.06-.06.15.05.53a11.25,11.25,0,0,0,1.49,3,49,49,0,0,0,5.42,6.51c2,2.12,4.22,4.17,6.43,6.21s4.53,4,6.85,5.93,4.69,3.88,7,5.76l-2.5,3.69a164.4,164.4,0,0,1-15.49-10.42c-2.5-1.88-4.95-3.86-7.32-6a50.94,50.94,0,0,1-6.77-7.21,17.7,17.7,0,0,1-2.8-5.11,9.17,9.17,0,0,1-.43-4l0-.28,0-.15.05-.3.1-.61.21-1.21a65.52,65.52,0,0,1,2.48-9.49,75,75,0,0,1,3.89-9c.75-1.46,1.57-2.87,2.45-4.26.43-.7.88-1.39,1.35-2.08l.74-1c.26-.35.48-.66.83-1.09Z" style="fill:#ffc3bd"></path><path d="M151.9,171c-6.86,1.8-13.48,18.43-13.48,18.43l8.88,8.12s13.95-12.72,13.48-18.46C160.39,174.21,157.41,169.54,151.9,171Z" style="fill:#FF81AE"></path><path d="M162.51,170a17.46,17.46,0,0,1-3.82.35c-.27,4.94,2.9,9.71,10.69,16.11,1.87-5.83,6-7.09,6-7.09Z" style="opacity:0.2"></path><path d="M178.83,171.57s.91.13,3.08.63c1.45,2.23,3.33,9.1-.94,14-1.66-6-5.62-6.76-5.62-6.76Z" style="opacity:0.2"></path><path d="M162.51,170s-2,0-4.44,0c-1.45,2.23,3.54,8.41,11.32,14.81,1.87-5.83,6-5.48,6-5.48Z" style="fill:#fff"></path><path d="M178.83,171.57s.91.13,3.08.63c1.45,2.23,4.58,8.27.31,13.13-1.66-6-6.87-5.92-6.87-5.92Z" style="fill:#fff"></path><path d="M165.72,152.05c.58,5.34.77,15-3.21,18.24,0,0,2.07,6,12.84,9.12,6.48-3.74,3.48-7.71,3.48-7.71-5.73-1.9-5.2-6.23-3.83-10.23Z" style="fill:#ffc3bd"></path><path d="M169.5,155.9l5.5,5.57a16.7,16.7,0,0,0-.76,2.85c-2.21-.51-5.41-2.81-5.44-5.17A9.51,9.51,0,0,1,169.5,155.9Z" style="opacity:0.2"></path><path d="M177.88,130.71c1.75-1.93,5.22.53,6.5,5.26,1.92,7-3.2,7.5-5.88,4S176.42,132.32,177.88,130.71Z" style="fill:#263238"></path><path d="M183.3,143a19.51,19.51,0,0,1,4.93,2.54C187.36,143.42,186.58,142.13,183.3,143Z" style="fill:#263238"></path><path d="M184.31,143.33a15.39,15.39,0,0,1,4.32-.24C187.21,142,186.18,141.46,184.31,143.33Z" style="fill:#263238"></path><path d="M161,143.71c2.23,8.53,3,12.19,8.22,15.76,7.87,5.38,17.86.78,18.23-8.25.33-8.12-3.37-20.7-12.5-22.48A12,12,0,0,0,161,143.71Z" style="fill:#ffc3bd"></path><path d="M165.12,132.46l-2.47,2.87a4.28,4.28,0,0,1-6,.44h0a4.28,4.28,0,0,1-.45-6l2.47-2.86a4.29,4.29,0,0,1,6-.45h0A4.29,4.29,0,0,1,165.12,132.46Z" style="fill:#fff"></path><path d="M167.4,135.66l-3,1.5a5.19,5.19,0,0,1-6.93-2.35h0a5.2,5.2,0,0,1,2.35-6.94l3-1.5a5.2,5.2,0,0,1,6.94,2.36h0A5.19,5.19,0,0,1,167.4,135.66Z" style="fill:#FF81AE"></path><path d="M163.56,150.09s6.16-1.41,3.54-10.42a2.36,2.36,0,0,1,2.22-3c6.94-.19,13.43-1.64,12.51-5.66-1.15-5.08-18.44-9-21.58,1.17C154.12,133.61,153.89,145.69,163.56,150.09Z" style="fill:#263238"></path><path d="M163.59,148.31a19.51,19.51,0,0,1,4.93,2.54C167.65,148.75,166.87,147.46,163.59,148.31Z" style="fill:#263238"></path><path d="M164.6,148.66a15.39,15.39,0,0,1,4.32-.24C167.51,147.35,166.48,146.8,164.6,148.66Z" style="fill:#263238"></path><path d="M159.6,150.41a6.45,6.45,0,0,0,3.79,3.14c2.17.65,3.29-1.27,2.73-3.34-.51-1.86-2.25-4.43-4.44-4.18A2.9,2.9,0,0,0,159.6,150.41Z" style="fill:#ffc3bd"></path><path d="M175.46,143.42c.14.7.63,1.2,1.08,1.11s.72-.74.59-1.44-.63-1.2-1.09-1.11S175.32,142.71,175.46,143.42Z" style="fill:#263238"></path><path d="M183.41,141.85c.14.71.62,1.2,1.08,1.11s.72-.73.58-1.43-.62-1.2-1.08-1.11S183.27,141.15,183.41,141.85Z" style="fill:#263238"></path><path d="M183.8,140.5l1.59-.82S184.78,141.17,183.8,140.5Z" style="fill:#263238"></path><path d="M180.68,143.61a19.14,19.14,0,0,0,3.39,4,3.08,3.08,0,0,1-2.42,1Z" style="fill:#ed847e"></path><path d="M178.4,151.92a5.8,5.8,0,0,1-4-1.53.18.18,0,0,1,0-.25.18.18,0,0,1,.25,0,5.7,5.7,0,0,0,5,1.29.17.17,0,0,1,.06.34A6.16,6.16,0,0,1,178.4,151.92Z" style="fill:#263238"></path><path d="M170.69,140.69a.41.41,0,0,1-.18-.05.35.35,0,0,1-.12-.48,4.09,4.09,0,0,1,3.17-2,.36.36,0,0,1,.36.34.35.35,0,0,1-.34.36,3.4,3.4,0,0,0-2.59,1.71A.35.35,0,0,1,170.69,140.69Z" style="fill:#263238"></path><path d="M185.62,137.87a.33.33,0,0,1-.17,0,3.45,3.45,0,0,0-3.11-.2A.35.35,0,0,1,182,137a4.08,4.08,0,0,1,3.77.21.34.34,0,0,1,.13.47A.33.33,0,0,1,185.62,137.87Z" style="fill:#263238"></path><path d="M165.61,236.56l8,.56L170,245.67s-6.68-2.11-6.95-7Z" style="fill:#ffc3bd"></path><polygon points="176.68 241.96 172.81 247.8 170.01 245.67 173.64 237.12 176.68 241.96" style="fill:#ffc3bd"></polygon><path d="M175.85,142.06l1.59-.82S176.83,142.73,175.85,142.06Z" style="fill:#263238"></path></g></svg>